<svg width="957" height="138" viewBox="0 0 957 138" fill="none" xmlns="http://www.w3.org/2000/svg">
<path d="M55 0H912L824.057 48H146.982L55 0Z" fill="#14508C"/>
<path d="M246 90H734L683.923 138H298.377L246 90Z" fill="#14508C"/>
<path d="M2 61H957L859 126H104.5L2 61Z" fill="white"/>
<path d="M223.613 101.32V108H221.363V90.9375H227.656C229.523 90.9375 230.984 91.4141 232.039 92.3672C233.102 93.3203 233.633 94.582 233.633 96.1523C233.633 97.8086 233.113 99.0859 232.074 99.9844C231.043 100.875 229.562 101.32 227.633 101.32H223.613ZM223.613 99.4805H227.656C228.859 99.4805 229.781 99.1992 230.422 98.6367C231.062 98.0664 231.383 97.2461 231.383 96.1758C231.383 95.1602 231.062 94.3477 230.422 93.7383C229.781 93.1289 228.902 92.8125 227.785 92.7891H223.613V99.4805ZM246.148 100.113H238.754V106.16H247.344V108H236.504V90.9375H247.227V92.7891H238.754V98.2734H246.148V100.113ZM263.258 108H260.996L252.406 94.8516V108H250.145V90.9375H252.406L261.02 104.145V90.9375H263.258V108ZM272.129 99.5039L276.582 90.9375H279.137L273.254 101.637V108H271.004V101.637L265.121 90.9375H267.699L272.129 99.5039ZM290.984 100.113H283.59V106.16H292.18V108H281.34V90.9375H292.062V92.7891H283.59V98.2734H290.984V100.113ZM294.98 108V90.9375H299.797C301.281 90.9375 302.594 91.2656 303.734 91.9219C304.875 92.5781 305.754 93.5117 306.371 94.7227C306.996 95.9336 307.312 97.3242 307.32 98.8945V99.9844C307.32 101.594 307.008 103.004 306.383 104.215C305.766 105.426 304.879 106.355 303.723 107.004C302.574 107.652 301.234 107.984 299.703 108H294.98ZM297.23 92.7891V106.16H299.598C301.332 106.16 302.68 105.621 303.641 104.543C304.609 103.465 305.094 101.93 305.094 99.9375V98.9414C305.094 97.0039 304.637 95.5 303.723 94.4297C302.816 93.3516 301.527 92.8047 299.855 92.7891H297.23ZM313.145 108H310.895V90.9375H313.145V108ZM326.902 103.547H319.754L318.148 108H315.828L322.344 90.9375H324.312L330.84 108H328.531L326.902 103.547ZM320.434 101.695H326.234L323.328 93.7148L320.434 101.695ZM341.352 106.16H349.438V108H339.09V90.9375H341.352V106.16ZM361.66 103.547H354.512L352.906 108H350.586L357.102 90.9375H359.07L365.598 108H363.289L361.66 103.547ZM355.191 101.695H360.992L358.086 93.7148L355.191 101.695ZM371.996 99.5039L376.449 90.9375H379.004L373.121 101.637V108H370.871V101.637L364.988 90.9375H367.566L371.996 99.5039ZM389.527 103.547H382.379L380.773 108H378.453L384.969 90.9375H386.938L393.465 108H391.156L389.527 103.547ZM383.059 101.695H388.859L385.953 93.7148L383.059 101.695ZM408.875 108H406.613L398.023 94.8516V108H395.762V90.9375H398.023L406.637 104.145V90.9375H408.875V108ZM421.074 101.32V108H418.824V90.9375H425.117C426.984 90.9375 428.445 91.4141 429.5 92.3672C430.562 93.3203 431.094 94.582 431.094 96.1523C431.094 97.8086 430.574 99.0859 429.535 99.9844C428.504 100.875 427.023 101.32 425.094 101.32H421.074ZM421.074 99.4805H425.117C426.32 99.4805 427.242 99.1992 427.883 98.6367C428.523 98.0664 428.844 97.2461 428.844 96.1758C428.844 95.1602 428.523 94.3477 427.883 93.7383C427.242 93.1289 426.363 92.8125 425.246 92.7891H421.074V99.4805ZM443.609 100.113H436.215V106.16H444.805V108H433.965V90.9375H444.688V92.7891H436.215V98.2734H443.609V100.113ZM453.863 101.098H449.855V108H447.594V90.9375H453.242C455.164 90.9375 456.641 91.375 457.672 92.25C458.711 93.125 459.23 94.3984 459.23 96.0703C459.23 97.1328 458.941 98.0586 458.363 98.8477C457.793 99.6367 456.996 100.227 455.973 100.617L459.98 107.859V108H457.566L453.863 101.098ZM449.855 99.2578H453.312C454.43 99.2578 455.316 98.9688 455.973 98.3906C456.637 97.8125 456.969 97.0391 456.969 96.0703C456.969 95.0156 456.652 94.207 456.02 93.6445C455.395 93.082 454.488 92.7969 453.301 92.7891H449.855V99.2578ZM464.809 108H462.559V90.9375H464.809V108ZM470.621 106.16H480.383V108H467.961V106.312L477.312 92.7891H468.113V90.9375H480.008V92.5898L470.621 106.16ZM485.715 108H483.465V90.9375H485.715V108ZM502.953 108H500.691L492.102 94.8516V108H489.84V90.9375H492.102L500.715 104.145V90.9375H502.953V108ZM516.582 103.547H509.434L507.828 108H505.508L512.023 90.9375H513.992L520.52 108H518.211L516.582 103.547ZM510.113 101.695H515.914L513.008 93.7148L510.113 101.695ZM535.93 108H533.668L525.078 94.8516V108H522.816V90.9375H525.078L533.691 104.145V90.9375H535.93V108ZM558.43 102.586C558.219 104.391 557.551 105.785 556.426 106.77C555.309 107.746 553.82 108.234 551.961 108.234C549.945 108.234 548.328 107.512 547.109 106.066C545.898 104.621 545.293 102.688 545.293 100.266V98.625C545.293 97.0391 545.574 95.6445 546.137 94.4414C546.707 93.2383 547.512 92.3164 548.551 91.6758C549.59 91.0273 550.793 90.7031 552.16 90.7031C553.973 90.7031 555.426 91.2109 556.52 92.2266C557.613 93.2344 558.25 94.6328 558.43 96.4219H556.168C555.973 95.0625 555.547 94.0781 554.891 93.4688C554.242 92.8594 553.332 92.5547 552.16 92.5547C550.723 92.5547 549.594 93.0859 548.773 94.1484C547.961 95.2109 547.555 96.7227 547.555 98.6836V100.336C547.555 102.188 547.941 103.66 548.715 104.754C549.488 105.848 550.57 106.395 551.961 106.395C553.211 106.395 554.168 106.113 554.832 105.551C555.504 104.98 555.949 103.992 556.168 102.586H558.43ZM571.156 100.113H563.762V106.16H572.352V108H561.512V90.9375H572.234V92.7891H563.762V98.2734H571.156V100.113ZM577.402 101.32V108H575.152V90.9375H581.445C583.312 90.9375 584.773 91.4141 585.828 92.3672C586.891 93.3203 587.422 94.582 587.422 96.1523C587.422 97.8086 586.902 99.0859 585.863 99.9844C584.832 100.875 583.352 101.32 581.422 101.32H577.402ZM577.402 99.4805H581.445C582.648 99.4805 583.57 99.1992 584.211 98.6367C584.852 98.0664 585.172 97.2461 585.172 96.1758C585.172 95.1602 584.852 94.3477 584.211 93.7383C583.57 93.1289 582.691 92.8125 581.574 92.7891H577.402V99.4805ZM598.098 103.547H590.949L589.344 108H587.023L593.539 90.9375H595.508L602.035 108H599.727L598.098 103.547ZM591.629 101.695H597.43L594.523 93.7148L591.629 101.695ZM614.598 92.7891H609.113V108H606.875V92.7891H601.402V90.9375H614.598V92.7891ZM622.613 108V90.9375H627.43C628.914 90.9375 630.227 91.2656 631.367 91.9219C632.508 92.5781 633.387 93.5117 634.004 94.7227C634.629 95.9336 634.945 97.3242 634.953 98.8945V99.9844C634.953 101.594 634.641 103.004 634.016 104.215C633.398 105.426 632.512 106.355 631.355 107.004C630.207 107.652 628.867 107.984 627.336 108H622.613ZM624.863 92.7891V106.16H627.23C628.965 106.16 630.312 105.621 631.273 104.543C632.242 103.465 632.727 101.93 632.727 99.9375V98.9414C632.727 97.0039 632.27 95.5 631.355 94.4297C630.449 93.3516 629.16 92.8047 627.488 92.7891H624.863ZM647.527 103.547H640.379L638.773 108H636.453L642.969 90.9375H644.938L651.465 108H649.156L647.527 103.547ZM641.059 101.695H646.859L643.953 93.7148L641.059 101.695ZM666.875 108H664.613L656.023 94.8516V108H653.762V90.9375H656.023L664.637 104.145V90.9375H666.875V108ZM679.73 90.9375L685.309 104.859L690.887 90.9375H693.805V108H691.555V101.355L691.766 94.1836L686.164 108H684.441L678.852 94.2188L679.074 101.355V108H676.824V90.9375H679.73ZM709.789 90.9375V102.539C709.781 104.148 709.273 105.465 708.266 106.488C707.266 107.512 705.906 108.086 704.188 108.211L703.59 108.234C701.723 108.234 700.234 107.73 699.125 106.723C698.016 105.715 697.453 104.328 697.438 102.562V90.9375H699.664V102.492C699.664 103.727 700.004 104.688 700.684 105.375C701.363 106.055 702.332 106.395 703.59 106.395C704.863 106.395 705.836 106.055 706.508 105.375C707.188 104.695 707.527 103.738 707.527 102.504V90.9375H709.789ZM713.34 108V90.9375H718.156C719.641 90.9375 720.953 91.2656 722.094 91.9219C723.234 92.5781 724.113 93.5117 724.73 94.7227C725.355 95.9336 725.672 97.3242 725.68 98.8945V99.9844C725.68 101.594 725.367 103.004 724.742 104.215C724.125 105.426 723.238 106.355 722.082 107.004C720.934 107.652 719.594 107.984 718.062 108H713.34ZM715.59 92.7891V106.16H717.957C719.691 106.16 721.039 105.621 722 104.543C722.969 103.465 723.453 101.93 723.453 99.9375V98.9414C723.453 97.0039 722.996 95.5 722.082 94.4297C721.176 93.3516 719.887 92.8047 718.215 92.7891H715.59ZM738.254 103.547H731.105L729.5 108H727.18L733.695 90.9375H735.664L742.191 108H739.883L738.254 103.547ZM731.785 101.695H737.586L734.68 93.7148L731.785 101.695ZM757.602 108H755.34V100.113H746.738V108H744.488V90.9375H746.738V98.2734H755.34V90.9375H757.602V108Z" fill="#5C91C6"/>
<path d="M0 12H955L857 77H102.5L0 12Z" fill="#5C91C6"/>
<path d="M151.309 55V37.9375H156.559C158.059 37.9375 159.398 38.2773 160.578 38.957C161.766 39.6289 162.691 40.5898 163.355 41.8398C164.02 43.082 164.352 44.4961 164.352 46.082V46.8672C164.352 48.4531 164.023 49.8633 163.367 51.0977C162.719 52.332 161.801 53.2891 160.613 53.9688C159.426 54.6484 158.086 54.9922 156.594 55H151.309ZM154.824 40.7852V52.1758H156.523C157.898 52.1758 158.949 51.7266 159.676 50.8281C160.402 49.9297 160.773 48.6445 160.789 46.9727V46.0703C160.789 44.3359 160.43 43.0234 159.711 42.1328C158.992 41.2344 157.941 40.7852 156.559 40.7852H154.824ZM170.656 55H167.141V37.9375H170.656V55ZM187.801 55H184.285L177.441 43.7734V55H173.926V37.9375H177.441L184.297 49.1875V37.9375H187.801V55ZM200.715 51.4844H194.551L193.379 55H189.641L195.992 37.9375H199.25L205.637 55H201.898L200.715 51.4844ZM195.5 48.6367H199.766L197.621 42.25L195.5 48.6367ZM216.078 50.5234C216.078 49.8594 215.844 49.3516 215.375 49C214.906 48.6406 214.062 48.2656 212.844 47.875C211.625 47.4766 210.66 47.0859 209.949 46.7031C208.012 45.6562 207.043 44.2461 207.043 42.4727C207.043 41.5508 207.301 40.7305 207.816 40.0117C208.34 39.2852 209.086 38.7188 210.055 38.3125C211.031 37.9062 212.125 37.7031 213.336 37.7031C214.555 37.7031 215.641 37.9258 216.594 38.3711C217.547 38.8086 218.285 39.4297 218.809 40.2344C219.34 41.0391 219.605 41.9531 219.605 42.9766H216.09C216.09 42.1953 215.844 41.5898 215.352 41.1602C214.859 40.7227 214.168 40.5039 213.277 40.5039C212.418 40.5039 211.75 40.6875 211.273 41.0547C210.797 41.4141 210.559 41.8906 210.559 42.4844C210.559 43.0391 210.836 43.5039 211.391 43.8789C211.953 44.2539 212.777 44.6055 213.863 44.9336C215.863 45.5352 217.32 46.2812 218.234 47.1719C219.148 48.0625 219.605 49.1719 219.605 50.5C219.605 51.9766 219.047 53.1367 217.93 53.9805C216.812 54.8164 215.309 55.2344 213.418 55.2344C212.105 55.2344 210.91 54.9961 209.832 54.5195C208.754 54.0352 207.93 53.375 207.359 52.5391C206.797 51.7031 206.516 50.7344 206.516 49.6328H210.043C210.043 51.5156 211.168 52.457 213.418 52.457C214.254 52.457 214.906 52.2891 215.375 51.9531C215.844 51.6094 216.078 51.1328 216.078 50.5234ZM231.488 48.9883V55H227.973V37.9375H234.629C235.91 37.9375 237.035 38.1719 238.004 38.6406C238.98 39.1094 239.73 39.7773 240.254 40.6445C240.777 41.5039 241.039 42.4844 241.039 43.5859C241.039 45.2578 240.465 46.5781 239.316 47.5469C238.176 48.5078 236.594 48.9883 234.57 48.9883H231.488ZM231.488 46.1406H234.629C235.559 46.1406 236.266 45.9219 236.75 45.4844C237.242 45.0469 237.488 44.4219 237.488 43.6094C237.488 42.7734 237.242 42.0977 236.75 41.582C236.258 41.0664 235.578 40.8008 234.711 40.7852H231.488V46.1406ZM253.73 47.6055H246.98V52.1758H254.902V55H243.465V37.9375H254.879V40.7852H246.98V44.8516H253.73V47.6055ZM270.84 55H267.324L260.48 43.7734V55H256.965V37.9375H260.48L267.336 49.1875V37.9375H270.84V55ZM283.754 51.4844H277.59L276.418 55H272.68L279.031 37.9375H282.289L288.676 55H284.938L283.754 51.4844ZM278.539 48.6367H282.805L280.66 42.25L278.539 48.6367ZM304.145 55H300.629L293.785 43.7734V55H290.27V37.9375H293.785L300.641 49.1875V37.9375H304.145V55ZM317.059 51.4844H310.895L309.723 55H305.984L312.336 37.9375H315.594L321.98 55H318.242L317.059 51.4844ZM311.844 48.6367H316.109L313.965 42.25L311.844 48.6367ZM328.168 37.9375L332.551 50.3125L336.91 37.9375H341.527V55H338V50.3359L338.352 42.2852L333.746 55H331.332L326.738 42.2969L327.09 50.3359V55H323.574V37.9375H328.168ZM354.441 51.4844H348.277L347.105 55H343.367L349.719 37.9375H352.977L359.363 55H355.625L354.441 51.4844ZM349.227 48.6367H353.492L351.348 42.25L349.227 48.6367ZM374.832 55H371.316L364.473 43.7734V55H360.957V37.9375H364.473L371.328 49.1875V37.9375H374.832V55ZM388.473 37.9375L392.855 50.3125L397.215 37.9375H401.832V55H398.305V50.3359L398.656 42.2852L394.051 55H391.637L387.043 42.2969L387.395 50.3359V55H383.879V37.9375H388.473ZM418.918 46.8555C418.918 48.5352 418.621 50.0078 418.027 51.2734C417.434 52.5391 416.582 53.5156 415.473 54.2031C414.371 54.8906 413.105 55.2344 411.676 55.2344C410.262 55.2344 409 54.8945 407.891 54.2148C406.781 53.5352 405.922 52.5664 405.312 51.3086C404.703 50.043 404.395 48.5898 404.387 46.9492V46.1055C404.387 44.4258 404.688 42.9492 405.289 41.6758C405.898 40.3945 406.754 39.4141 407.855 38.7344C408.965 38.0469 410.23 37.7031 411.652 37.7031C413.074 37.7031 414.336 38.0469 415.438 38.7344C416.547 39.4141 417.402 40.3945 418.004 41.6758C418.613 42.9492 418.918 44.4219 418.918 46.0938V46.8555ZM415.355 46.082C415.355 44.293 415.035 42.9336 414.395 42.0039C413.754 41.0742 412.84 40.6094 411.652 40.6094C410.473 40.6094 409.562 41.0703 408.922 41.9922C408.281 42.9062 407.957 44.25 407.949 46.0234V46.8555C407.949 48.5977 408.27 49.9492 408.91 50.9102C409.551 51.8711 410.473 52.3516 411.676 52.3516C412.855 52.3516 413.762 51.8906 414.395 50.9688C415.027 50.0391 415.348 48.6875 415.355 46.9141V46.082ZM421.473 55V37.9375H426.723C428.223 37.9375 429.562 38.2773 430.742 38.957C431.93 39.6289 432.855 40.5898 433.52 41.8398C434.184 43.082 434.516 44.4961 434.516 46.082V46.8672C434.516 48.4531 434.188 49.8633 433.531 51.0977C432.883 52.332 431.965 53.2891 430.777 53.9688C429.59 54.6484 428.25 54.9922 426.758 55H421.473ZM424.988 40.7852V52.1758H426.688C428.062 52.1758 429.113 51.7266 429.84 50.8281C430.566 49.9297 430.938 48.6445 430.953 46.9727V46.0703C430.953 44.3359 430.594 43.0234 429.875 42.1328C429.156 41.2344 428.105 40.7852 426.723 40.7852H424.988ZM446.457 51.4844H440.293L439.121 55H435.383L441.734 37.9375H444.992L451.379 55H447.641L446.457 51.4844ZM441.242 48.6367H445.508L443.363 42.25L441.242 48.6367ZM456.488 52.1758H463.953V55H452.973V37.9375H456.488V52.1758ZM471.957 55V37.9375H477.207C478.707 37.9375 480.047 38.2773 481.227 38.957C482.414 39.6289 483.34 40.5898 484.004 41.8398C484.668 43.082 485 44.4961 485 46.082V46.8672C485 48.4531 484.672 49.8633 484.016 51.0977C483.367 52.332 482.449 53.2891 481.262 53.9688C480.074 54.6484 478.734 54.9922 477.242 55H471.957ZM475.473 40.7852V52.1758H477.172C478.547 52.1758 479.598 51.7266 480.324 50.8281C481.051 49.9297 481.422 48.6445 481.438 46.9727V46.0703C481.438 44.3359 481.078 43.0234 480.359 42.1328C479.641 41.2344 478.59 40.7852 477.207 40.7852H475.473ZM496.941 51.4844H490.777L489.605 55H485.867L492.219 37.9375H495.477L501.863 55H498.125L496.941 51.4844ZM491.727 48.6367H495.992L493.848 42.25L491.727 48.6367ZM517.332 55H513.816L506.973 43.7734V55H503.457V37.9375H506.973L513.828 49.1875V37.9375H517.332V55ZM529.895 48.9883V55H526.379V37.9375H533.035C534.316 37.9375 535.441 38.1719 536.41 38.6406C537.387 39.1094 538.137 39.7773 538.66 40.6445C539.184 41.5039 539.445 42.4844 539.445 43.5859C539.445 45.2578 538.871 46.5781 537.723 47.5469C536.582 48.5078 535 48.9883 532.977 48.9883H529.895ZM529.895 46.1406H533.035C533.965 46.1406 534.672 45.9219 535.156 45.4844C535.648 45.0469 535.895 44.4219 535.895 43.6094C535.895 42.7734 535.648 42.0977 535.156 41.582C534.664 41.0664 533.984 40.8008 533.117 40.7852H529.895V46.1406ZM554.715 40.7852H549.488V55H545.973V40.7852H540.816V37.9375H554.715V40.7852ZM565.391 50.5234C565.391 49.8594 565.156 49.3516 564.688 49C564.219 48.6406 563.375 48.2656 562.156 47.875C560.938 47.4766 559.973 47.0859 559.262 46.7031C557.324 45.6562 556.355 44.2461 556.355 42.4727C556.355 41.5508 556.613 40.7305 557.129 40.0117C557.652 39.2852 558.398 38.7188 559.367 38.3125C560.344 37.9062 561.438 37.7031 562.648 37.7031C563.867 37.7031 564.953 37.9258 565.906 38.3711C566.859 38.8086 567.598 39.4297 568.121 40.2344C568.652 41.0391 568.918 41.9531 568.918 42.9766H565.402C565.402 42.1953 565.156 41.5898 564.664 41.1602C564.172 40.7227 563.48 40.5039 562.59 40.5039C561.73 40.5039 561.062 40.6875 560.586 41.0547C560.109 41.4141 559.871 41.8906 559.871 42.4844C559.871 43.0391 560.148 43.5039 560.703 43.8789C561.266 44.2539 562.09 44.6055 563.176 44.9336C565.176 45.5352 566.633 46.2812 567.547 47.1719C568.461 48.0625 568.918 49.1719 568.918 50.5C568.918 51.9766 568.359 53.1367 567.242 53.9805C566.125 54.8164 564.621 55.2344 562.73 55.2344C561.418 55.2344 560.223 54.9961 559.145 54.5195C558.066 54.0352 557.242 53.375 556.672 52.5391C556.109 51.7031 555.828 50.7344 555.828 49.6328H559.355C559.355 51.5156 560.48 52.457 562.73 52.457C563.566 52.457 564.219 52.2891 564.688 51.9531C565.156 51.6094 565.391 51.1328 565.391 50.5234ZM574.824 48.9883V55H571.309V37.9375H577.965C579.246 37.9375 580.371 38.1719 581.34 38.6406C582.316 39.1094 583.066 39.7773 583.59 40.6445C584.113 41.5039 584.375 42.4844 584.375 43.5859C584.375 45.2578 583.801 46.5781 582.652 47.5469C581.512 48.5078 579.93 48.9883 577.906 48.9883H574.824ZM574.824 46.1406H577.965C578.895 46.1406 579.602 45.9219 580.086 45.4844C580.578 45.0469 580.824 44.4219 580.824 43.6094C580.824 42.7734 580.578 42.0977 580.086 41.582C579.594 41.0664 578.914 40.8008 578.047 40.7852H574.824V46.1406ZM598.121 48.1562L596.293 50.125V55H592.777V37.9375H596.293V45.6719L597.84 43.5508L602.188 37.9375H606.512L600.453 45.5195L606.688 55H602.504L598.121 48.1562ZM621.652 46.8555C621.652 48.5352 621.355 50.0078 620.762 51.2734C620.168 52.5391 619.316 53.5156 618.207 54.2031C617.105 54.8906 615.84 55.2344 614.41 55.2344C612.996 55.2344 611.734 54.8945 610.625 54.2148C609.516 53.5352 608.656 52.5664 608.047 51.3086C607.438 50.043 607.129 48.5898 607.121 46.9492V46.1055C607.121 44.4258 607.422 42.9492 608.023 41.6758C608.633 40.3945 609.488 39.4141 610.59 38.7344C611.699 38.0469 612.965 37.7031 614.387 37.7031C615.809 37.7031 617.07 38.0469 618.172 38.7344C619.281 39.4141 620.137 40.3945 620.738 41.6758C621.348 42.9492 621.652 44.4219 621.652 46.0938V46.8555ZM618.09 46.082C618.09 44.293 617.77 42.9336 617.129 42.0039C616.488 41.0742 615.574 40.6094 614.387 40.6094C613.207 40.6094 612.297 41.0703 611.656 41.9922C611.016 42.9062 610.691 44.25 610.684 46.0234V46.8555C610.684 48.5977 611.004 49.9492 611.645 50.9102C612.285 51.8711 613.207 52.3516 614.41 52.3516C615.59 52.3516 616.496 51.8906 617.129 50.9688C617.762 50.0391 618.082 48.6875 618.09 46.9141V46.082ZM636.043 40.7852H630.816V55H627.301V40.7852H622.145V37.9375H636.043V40.7852ZM646.285 51.4844H640.121L638.949 55H635.211L641.562 37.9375H644.82L651.207 55H647.469L646.285 51.4844ZM641.07 48.6367H645.336L643.191 42.25L641.07 48.6367ZM658.777 55V37.9375H664.754C666.824 37.9375 668.395 38.3359 669.465 39.1328C670.535 39.9219 671.07 41.082 671.07 42.6133C671.07 43.4492 670.855 44.1875 670.426 44.8281C669.996 45.4609 669.398 45.9258 668.633 46.2227C669.508 46.4414 670.195 46.8828 670.695 47.5469C671.203 48.2109 671.457 49.0234 671.457 49.9844C671.457 51.625 670.934 52.8672 669.887 53.7109C668.84 54.5547 667.348 54.9844 665.41 55H658.777ZM662.293 47.5703V52.1758H665.305C666.133 52.1758 666.777 51.9805 667.238 51.5898C667.707 51.1914 667.941 50.6445 667.941 49.9492C667.941 48.3867 667.133 47.5938 665.516 47.5703H662.293ZM662.293 45.0859H664.895C666.668 45.0547 667.555 44.3477 667.555 42.9648C667.555 42.1914 667.328 41.6367 666.875 41.3008C666.43 40.957 665.723 40.7852 664.754 40.7852H662.293V45.0859ZM683.738 51.4844H677.574L676.402 55H672.664L679.016 37.9375H682.273L688.66 55H684.922L683.738 51.4844ZM678.523 48.6367H682.789L680.645 42.25L678.523 48.6367ZM704.129 55H700.613L693.77 43.7734V55H690.254V37.9375H693.77L700.625 49.1875V37.9375H704.129V55ZM707.199 55V37.9375H712.449C713.949 37.9375 715.289 38.2773 716.469 38.957C717.656 39.6289 718.582 40.5898 719.246 41.8398C719.91 43.082 720.242 44.4961 720.242 46.082V46.8672C720.242 48.4531 719.914 49.8633 719.258 51.0977C718.609 52.332 717.691 53.2891 716.504 53.9688C715.316 54.6484 713.977 54.9922 712.484 55H707.199ZM710.715 40.7852V52.1758H712.414C713.789 52.1758 714.84 51.7266 715.566 50.8281C716.293 49.9297 716.664 48.6445 716.68 46.9727V46.0703C716.68 44.3359 716.32 43.0234 715.602 42.1328C714.883 41.2344 713.832 40.7852 712.449 40.7852H710.715ZM732.184 51.4844H726.02L724.848 55H721.109L727.461 37.9375H730.719L737.105 55H733.367L732.184 51.4844ZM726.969 48.6367H731.234L729.09 42.25L726.969 48.6367ZM754.309 51.4844H748.145L746.973 55H743.234L749.586 37.9375H752.844L759.23 55H755.492L754.309 51.4844ZM749.094 48.6367H753.359L751.215 42.25L749.094 48.6367ZM773.961 49.3164C773.828 51.1523 773.148 52.5977 771.922 53.6523C770.703 54.707 769.094 55.2344 767.094 55.2344C764.906 55.2344 763.184 54.5 761.926 53.0312C760.676 51.5547 760.051 49.5312 760.051 46.9609V45.918C760.051 44.2773 760.34 42.832 760.918 41.582C761.496 40.332 762.32 39.375 763.391 38.7109C764.469 38.0391 765.719 37.7031 767.141 37.7031C769.109 37.7031 770.695 38.2305 771.898 39.2852C773.102 40.3398 773.797 41.8203 773.984 43.7266H770.469C770.383 42.625 770.074 41.8281 769.543 41.3359C769.02 40.8359 768.219 40.5859 767.141 40.5859C765.969 40.5859 765.09 41.0078 764.504 41.8516C763.926 42.6875 763.629 43.9883 763.613 45.7539V47.043C763.613 48.8867 763.891 50.2344 764.445 51.0859C765.008 51.9375 765.891 52.3633 767.094 52.3633C768.18 52.3633 768.988 52.1172 769.52 51.625C770.059 51.125 770.367 50.3555 770.445 49.3164H773.961ZM786.535 47.6055H779.785V52.1758H787.707V55H776.27V37.9375H787.684V40.7852H779.785V44.8516H786.535V47.6055ZM803.656 55H800.141V47.6875H793.285V55H789.77V37.9375H793.285V44.8516H800.141V37.9375H803.656V55Z" fill="white"/>
</svg>
